<svg xmlns="http://www.w3.org/2000/svg" width="493" height="493" viewBox="0 0 493 493">
  <rect width="493" height="493" fill="#ffffff"/>
  <rect x="34" y="34" width="17" height="17" rx="4" ry="4" fill="#1a7a82"/>
  <rect x="51" y="34" width="17" height="17" rx="4" ry="4" fill="#1a7a82"/>
  <rect x="68" y="34" width="17" height="17" rx="4" ry="4" fill="#1a7a82"/>
  <rect x="85" y="34" width="17" height="17" rx="4" ry="4" fill="#1a7a82"/>
  <rect x="102" y="34" width="17" height="17" rx="4" ry="4" fill="#1a7a82"/>
  <rect x="119" y="34" width="17" height="17" rx="4" ry="4" fill="#1a7a82"/>
  <rect x="136" y="34" width="17" height="17" rx="4" ry="4" fill="#1a7a82"/>
  <rect x="187" y="34" width="17" height="17" rx="4" ry="4" fill="#1a7a82"/>
  <rect x="238" y="34" width="17" height="17" rx="4" ry="4" fill="#1a7a82"/>
  <rect x="306" y="34" width="17" height="17" rx="4" ry="4" fill="#1a7a82"/>
  <rect x="340" y="34" width="17" height="17" rx="4" ry="4" fill="#1a7a82"/>
  <rect x="357" y="34" width="17" height="17" rx="4" ry="4" fill="#1a7a82"/>
  <rect x="374" y="34" width="17" height="17" rx="4" ry="4" fill="#1a7a82"/>
  <rect x="391" y="34" width="17" height="17" rx="4" ry="4" fill="#1a7a82"/>
  <rect x="408" y="34" width="17" height="17" rx="4" ry="4" fill="#1a7a82"/>
  <rect x="425" y="34" width="17" height="17" rx="4" ry="4" fill="#1a7a82"/>
  <rect x="442" y="34" width="17" height="17" rx="4" ry="4" fill="#1a7a82"/>
  <rect x="34" y="51" width="17" height="17" rx="4" ry="4" fill="#1a7a82"/>
  <rect x="136" y="51" width="17" height="17" rx="4" ry="4" fill="#1a7a82"/>
  <rect x="187" y="51" width="17" height="17" rx="4" ry="4" fill="#1a7a82"/>
  <rect x="204" y="51" width="17" height="17" rx="4" ry="4" fill="#1a7a82"/>
  <rect x="221" y="51" width="17" height="17" rx="4" ry="4" fill="#1a7a82"/>
  <rect x="238" y="51" width="17" height="17" rx="4" ry="4" fill="#1a7a82"/>
  <rect x="255" y="51" width="17" height="17" rx="4" ry="4" fill="#1a7a82"/>
  <rect x="289" y="51" width="17" height="17" rx="4" ry="4" fill="#1a7a82"/>
  <rect x="340" y="51" width="17" height="17" rx="4" ry="4" fill="#1a7a82"/>
  <rect x="442" y="51" width="17" height="17" rx="4" ry="4" fill="#1a7a82"/>
  <rect x="34" y="68" width="17" height="17" rx="4" ry="4" fill="#1a7a82"/>
  <rect x="68" y="68" width="17" height="17" rx="4" ry="4" fill="#1a7a82"/>
  <rect x="85" y="68" width="17" height="17" rx="4" ry="4" fill="#1a7a82"/>
  <rect x="102" y="68" width="17" height="17" rx="4" ry="4" fill="#1a7a82"/>
  <rect x="136" y="68" width="17" height="17" rx="4" ry="4" fill="#1a7a82"/>
  <rect x="170" y="68" width="17" height="17" rx="4" ry="4" fill="#1a7a82"/>
  <rect x="187" y="68" width="17" height="17" rx="4" ry="4" fill="#1a7a82"/>
  <rect x="306" y="68" width="17" height="17" rx="4" ry="4" fill="#1a7a82"/>
  <rect x="340" y="68" width="17" height="17" rx="4" ry="4" fill="#1a7a82"/>
  <rect x="374" y="68" width="17" height="17" rx="4" ry="4" fill="#1a7a82"/>
  <rect x="391" y="68" width="17" height="17" rx="4" ry="4" fill="#1a7a82"/>
  <rect x="408" y="68" width="17" height="17" rx="4" ry="4" fill="#1a7a82"/>
  <rect x="442" y="68" width="17" height="17" rx="4" ry="4" fill="#1a7a82"/>
  <rect x="34" y="85" width="17" height="17" rx="4" ry="4" fill="#1a7a82"/>
  <rect x="68" y="85" width="17" height="17" rx="4" ry="4" fill="#1a7a82"/>
  <rect x="85" y="85" width="17" height="17" rx="4" ry="4" fill="#1a7a82"/>
  <rect x="102" y="85" width="17" height="17" rx="4" ry="4" fill="#1a7a82"/>
  <rect x="136" y="85" width="17" height="17" rx="4" ry="4" fill="#1a7a82"/>
  <rect x="170" y="85" width="17" height="17" rx="4" ry="4" fill="#1a7a82"/>
  <rect x="255" y="85" width="17" height="17" rx="4" ry="4" fill="#1a7a82"/>
  <rect x="272" y="85" width="17" height="17" rx="4" ry="4" fill="#1a7a82"/>
  <rect x="340" y="85" width="17" height="17" rx="4" ry="4" fill="#1a7a82"/>
  <rect x="374" y="85" width="17" height="17" rx="4" ry="4" fill="#1a7a82"/>
  <rect x="391" y="85" width="17" height="17" rx="4" ry="4" fill="#1a7a82"/>
  <rect x="408" y="85" width="17" height="17" rx="4" ry="4" fill="#1a7a82"/>
  <rect x="442" y="85" width="17" height="17" rx="4" ry="4" fill="#1a7a82"/>
  <rect x="34" y="102" width="17" height="17" rx="4" ry="4" fill="#1a7a82"/>
  <rect x="68" y="102" width="17" height="17" rx="4" ry="4" fill="#1a7a82"/>
  <rect x="85" y="102" width="17" height="17" rx="4" ry="4" fill="#1a7a82"/>
  <rect x="102" y="102" width="17" height="17" rx="4" ry="4" fill="#1a7a82"/>
  <rect x="136" y="102" width="17" height="17" rx="4" ry="4" fill="#1a7a82"/>
  <rect x="170" y="102" width="17" height="17" rx="4" ry="4" fill="#1a7a82"/>
  <rect x="187" y="102" width="17" height="17" rx="4" ry="4" fill="#1a7a82"/>
  <rect x="340" y="102" width="17" height="17" rx="4" ry="4" fill="#1a7a82"/>
  <rect x="374" y="102" width="17" height="17" rx="4" ry="4" fill="#1a7a82"/>
  <rect x="391" y="102" width="17" height="17" rx="4" ry="4" fill="#1a7a82"/>
  <rect x="408" y="102" width="17" height="17" rx="4" ry="4" fill="#1a7a82"/>
  <rect x="442" y="102" width="17" height="17" rx="4" ry="4" fill="#1a7a82"/>
  <rect x="34" y="119" width="17" height="17" rx="4" ry="4" fill="#1a7a82"/>
  <rect x="136" y="119" width="17" height="17" rx="4" ry="4" fill="#1a7a82"/>
  <rect x="170" y="119" width="17" height="17" rx="4" ry="4" fill="#1a7a82"/>
  <rect x="187" y="119" width="17" height="17" rx="4" ry="4" fill="#1a7a82"/>
  <rect x="204" y="119" width="17" height="17" rx="4" ry="4" fill="#1a7a82"/>
  <rect x="289" y="119" width="17" height="17" rx="4" ry="4" fill="#1a7a82"/>
  <rect x="306" y="119" width="17" height="17" rx="4" ry="4" fill="#1a7a82"/>
  <rect x="340" y="119" width="17" height="17" rx="4" ry="4" fill="#1a7a82"/>
  <rect x="442" y="119" width="17" height="17" rx="4" ry="4" fill="#1a7a82"/>
  <rect x="34" y="136" width="17" height="17" rx="4" ry="4" fill="#1a7a82"/>
  <rect x="51" y="136" width="17" height="17" rx="4" ry="4" fill="#1a7a82"/>
  <rect x="68" y="136" width="17" height="17" rx="4" ry="4" fill="#1a7a82"/>
  <rect x="85" y="136" width="17" height="17" rx="4" ry="4" fill="#1a7a82"/>
  <rect x="102" y="136" width="17" height="17" rx="4" ry="4" fill="#1a7a82"/>
  <rect x="119" y="136" width="17" height="17" rx="4" ry="4" fill="#1a7a82"/>
  <rect x="136" y="136" width="17" height="17" rx="4" ry="4" fill="#1a7a82"/>
  <rect x="170" y="136" width="17" height="17" rx="4" ry="4" fill="#1a7a82"/>
  <rect x="204" y="136" width="17" height="17" rx="4" ry="4" fill="#1a7a82"/>
  <rect x="238" y="136" width="17" height="17" rx="4" ry="4" fill="#1a7a82"/>
  <rect x="272" y="136" width="17" height="17" rx="4" ry="4" fill="#1a7a82"/>
  <rect x="306" y="136" width="17" height="17" rx="4" ry="4" fill="#1a7a82"/>
  <rect x="340" y="136" width="17" height="17" rx="4" ry="4" fill="#1a7a82"/>
  <rect x="357" y="136" width="17" height="17" rx="4" ry="4" fill="#1a7a82"/>
  <rect x="374" y="136" width="17" height="17" rx="4" ry="4" fill="#1a7a82"/>
  <rect x="391" y="136" width="17" height="17" rx="4" ry="4" fill="#1a7a82"/>
  <rect x="408" y="136" width="17" height="17" rx="4" ry="4" fill="#1a7a82"/>
  <rect x="425" y="136" width="17" height="17" rx="4" ry="4" fill="#1a7a82"/>
  <rect x="442" y="136" width="17" height="17" rx="4" ry="4" fill="#1a7a82"/>
  <rect x="170" y="153" width="17" height="17" rx="4" ry="4" fill="#1a7a82"/>
  <rect x="187" y="153" width="17" height="17" rx="4" ry="4" fill="#1a7a82"/>
  <rect x="221" y="153" width="17" height="17" rx="4" ry="4" fill="#1a7a82"/>
  <rect x="272" y="153" width="17" height="17" rx="4" ry="4" fill="#1a7a82"/>
  <rect x="289" y="153" width="17" height="17" rx="4" ry="4" fill="#1a7a82"/>
  <rect x="306" y="153" width="17" height="17" rx="4" ry="4" fill="#1a7a82"/>
  <rect x="34" y="170" width="17" height="17" rx="4" ry="4" fill="#1a7a82"/>
  <rect x="68" y="170" width="17" height="17" rx="4" ry="4" fill="#1a7a82"/>
  <rect x="85" y="170" width="17" height="17" rx="4" ry="4" fill="#1a7a82"/>
  <rect x="102" y="170" width="17" height="17" rx="4" ry="4" fill="#1a7a82"/>
  <rect x="119" y="170" width="17" height="17" rx="4" ry="4" fill="#1a7a82"/>
  <rect x="136" y="170" width="17" height="17" rx="4" ry="4" fill="#1a7a82"/>
  <rect x="221" y="170" width="17" height="17" rx="4" ry="4" fill="#1a7a82"/>
  <rect x="255" y="170" width="17" height="17" rx="4" ry="4" fill="#1a7a82"/>
  <rect x="272" y="170" width="17" height="17" rx="4" ry="4" fill="#1a7a82"/>
  <rect x="289" y="170" width="17" height="17" rx="4" ry="4" fill="#1a7a82"/>
  <rect x="340" y="170" width="17" height="17" rx="4" ry="4" fill="#1a7a82"/>
  <rect x="357" y="170" width="17" height="17" rx="4" ry="4" fill="#1a7a82"/>
  <rect x="374" y="170" width="17" height="17" rx="4" ry="4" fill="#1a7a82"/>
  <rect x="391" y="170" width="17" height="17" rx="4" ry="4" fill="#1a7a82"/>
  <rect x="408" y="170" width="17" height="17" rx="4" ry="4" fill="#1a7a82"/>
  <rect x="51" y="187" width="17" height="17" rx="4" ry="4" fill="#1a7a82"/>
  <rect x="68" y="187" width="17" height="17" rx="4" ry="4" fill="#1a7a82"/>
  <rect x="85" y="187" width="17" height="17" rx="4" ry="4" fill="#1a7a82"/>
  <rect x="119" y="187" width="17" height="17" rx="4" ry="4" fill="#1a7a82"/>
  <rect x="170" y="187" width="17" height="17" rx="4" ry="4" fill="#1a7a82"/>
  <rect x="187" y="187" width="17" height="17" rx="4" ry="4" fill="#1a7a82"/>
  <rect x="204" y="187" width="17" height="17" rx="4" ry="4" fill="#1a7a82"/>
  <rect x="221" y="187" width="17" height="17" rx="4" ry="4" fill="#1a7a82"/>
  <rect x="272" y="187" width="17" height="17" rx="4" ry="4" fill="#1a7a82"/>
  <rect x="306" y="187" width="17" height="17" rx="4" ry="4" fill="#1a7a82"/>
  <rect x="357" y="187" width="17" height="17" rx="4" ry="4" fill="#1a7a82"/>
  <rect x="425" y="187" width="17" height="17" rx="4" ry="4" fill="#1a7a82"/>
  <rect x="34" y="204" width="17" height="17" rx="4" ry="4" fill="#1a7a82"/>
  <rect x="51" y="204" width="17" height="17" rx="4" ry="4" fill="#1a7a82"/>
  <rect x="102" y="204" width="17" height="17" rx="4" ry="4" fill="#1a7a82"/>
  <rect x="119" y="204" width="17" height="17" rx="4" ry="4" fill="#1a7a82"/>
  <rect x="136" y="204" width="17" height="17" rx="4" ry="4" fill="#1a7a82"/>
  <rect x="170" y="204" width="17" height="17" rx="4" ry="4" fill="#1a7a82"/>
  <rect x="204" y="204" width="17" height="17" rx="4" ry="4" fill="#1a7a82"/>
  <rect x="221" y="204" width="17" height="17" rx="4" ry="4" fill="#1a7a82"/>
  <rect x="255" y="204" width="17" height="17" rx="4" ry="4" fill="#1a7a82"/>
  <rect x="289" y="204" width="17" height="17" rx="4" ry="4" fill="#1a7a82"/>
  <rect x="306" y="204" width="17" height="17" rx="4" ry="4" fill="#1a7a82"/>
  <rect x="340" y="204" width="17" height="17" rx="4" ry="4" fill="#1a7a82"/>
  <rect x="391" y="204" width="17" height="17" rx="4" ry="4" fill="#1a7a82"/>
  <rect x="425" y="204" width="17" height="17" rx="4" ry="4" fill="#1a7a82"/>
  <rect x="442" y="204" width="17" height="17" rx="4" ry="4" fill="#1a7a82"/>
  <rect x="51" y="221" width="17" height="17" rx="4" ry="4" fill="#1a7a82"/>
  <rect x="68" y="221" width="17" height="17" rx="4" ry="4" fill="#1a7a82"/>
  <rect x="102" y="221" width="17" height="17" rx="4" ry="4" fill="#1a7a82"/>
  <rect x="204" y="221" width="17" height="17" rx="4" ry="4" fill="#1a7a82"/>
  <rect x="289" y="221" width="17" height="17" rx="4" ry="4" fill="#1a7a82"/>
  <rect x="306" y="221" width="17" height="17" rx="4" ry="4" fill="#1a7a82"/>
  <rect x="323" y="221" width="17" height="17" rx="4" ry="4" fill="#1a7a82"/>
  <rect x="340" y="221" width="17" height="17" rx="4" ry="4" fill="#1a7a82"/>
  <rect x="357" y="221" width="17" height="17" rx="4" ry="4" fill="#1a7a82"/>
  <rect x="442" y="221" width="17" height="17" rx="4" ry="4" fill="#1a7a82"/>
  <rect x="51" y="238" width="17" height="17" rx="4" ry="4" fill="#1a7a82"/>
  <rect x="85" y="238" width="17" height="17" rx="4" ry="4" fill="#1a7a82"/>
  <rect x="119" y="238" width="17" height="17" rx="4" ry="4" fill="#1a7a82"/>
  <rect x="136" y="238" width="17" height="17" rx="4" ry="4" fill="#1a7a82"/>
  <rect x="153" y="238" width="17" height="17" rx="4" ry="4" fill="#1a7a82"/>
  <rect x="187" y="238" width="17" height="17" rx="4" ry="4" fill="#1a7a82"/>
  <rect x="204" y="238" width="17" height="17" rx="4" ry="4" fill="#1a7a82"/>
  <rect x="238" y="238" width="17" height="17" rx="4" ry="4" fill="#1a7a82"/>
  <rect x="255" y="238" width="17" height="17" rx="4" ry="4" fill="#1a7a82"/>
  <rect x="289" y="238" width="17" height="17" rx="4" ry="4" fill="#1a7a82"/>
  <rect x="323" y="238" width="17" height="17" rx="4" ry="4" fill="#1a7a82"/>
  <rect x="340" y="238" width="17" height="17" rx="4" ry="4" fill="#1a7a82"/>
  <rect x="374" y="238" width="17" height="17" rx="4" ry="4" fill="#1a7a82"/>
  <rect x="408" y="238" width="17" height="17" rx="4" ry="4" fill="#1a7a82"/>
  <rect x="425" y="238" width="17" height="17" rx="4" ry="4" fill="#1a7a82"/>
  <rect x="442" y="238" width="17" height="17" rx="4" ry="4" fill="#1a7a82"/>
  <rect x="34" y="255" width="17" height="17" rx="4" ry="4" fill="#1a7a82"/>
  <rect x="51" y="255" width="17" height="17" rx="4" ry="4" fill="#1a7a82"/>
  <rect x="68" y="255" width="17" height="17" rx="4" ry="4" fill="#1a7a82"/>
  <rect x="85" y="255" width="17" height="17" rx="4" ry="4" fill="#1a7a82"/>
  <rect x="119" y="255" width="17" height="17" rx="4" ry="4" fill="#1a7a82"/>
  <rect x="153" y="255" width="17" height="17" rx="4" ry="4" fill="#1a7a82"/>
  <rect x="204" y="255" width="17" height="17" rx="4" ry="4" fill="#1a7a82"/>
  <rect x="238" y="255" width="17" height="17" rx="4" ry="4" fill="#1a7a82"/>
  <rect x="255" y="255" width="17" height="17" rx="4" ry="4" fill="#1a7a82"/>
  <rect x="306" y="255" width="17" height="17" rx="4" ry="4" fill="#1a7a82"/>
  <rect x="357" y="255" width="17" height="17" rx="4" ry="4" fill="#1a7a82"/>
  <rect x="391" y="255" width="17" height="17" rx="4" ry="4" fill="#1a7a82"/>
  <rect x="425" y="255" width="17" height="17" rx="4" ry="4" fill="#1a7a82"/>
  <rect x="34" y="272" width="17" height="17" rx="4" ry="4" fill="#1a7a82"/>
  <rect x="85" y="272" width="17" height="17" rx="4" ry="4" fill="#1a7a82"/>
  <rect x="136" y="272" width="17" height="17" rx="4" ry="4" fill="#1a7a82"/>
  <rect x="153" y="272" width="17" height="17" rx="4" ry="4" fill="#1a7a82"/>
  <rect x="204" y="272" width="17" height="17" rx="4" ry="4" fill="#1a7a82"/>
  <rect x="255" y="272" width="17" height="17" rx="4" ry="4" fill="#1a7a82"/>
  <rect x="272" y="272" width="17" height="17" rx="4" ry="4" fill="#1a7a82"/>
  <rect x="289" y="272" width="17" height="17" rx="4" ry="4" fill="#1a7a82"/>
  <rect x="323" y="272" width="17" height="17" rx="4" ry="4" fill="#1a7a82"/>
  <rect x="340" y="272" width="17" height="17" rx="4" ry="4" fill="#1a7a82"/>
  <rect x="357" y="272" width="17" height="17" rx="4" ry="4" fill="#1a7a82"/>
  <rect x="374" y="272" width="17" height="17" rx="4" ry="4" fill="#1a7a82"/>
  <rect x="391" y="272" width="17" height="17" rx="4" ry="4" fill="#1a7a82"/>
  <rect x="425" y="272" width="17" height="17" rx="4" ry="4" fill="#1a7a82"/>
  <rect x="442" y="272" width="17" height="17" rx="4" ry="4" fill="#1a7a82"/>
  <rect x="34" y="289" width="17" height="17" rx="4" ry="4" fill="#1a7a82"/>
  <rect x="85" y="289" width="17" height="17" rx="4" ry="4" fill="#1a7a82"/>
  <rect x="119" y="289" width="17" height="17" rx="4" ry="4" fill="#1a7a82"/>
  <rect x="204" y="289" width="17" height="17" rx="4" ry="4" fill="#1a7a82"/>
  <rect x="221" y="289" width="17" height="17" rx="4" ry="4" fill="#1a7a82"/>
  <rect x="238" y="289" width="17" height="17" rx="4" ry="4" fill="#1a7a82"/>
  <rect x="272" y="289" width="17" height="17" rx="4" ry="4" fill="#1a7a82"/>
  <rect x="323" y="289" width="17" height="17" rx="4" ry="4" fill="#1a7a82"/>
  <rect x="340" y="289" width="17" height="17" rx="4" ry="4" fill="#1a7a82"/>
  <rect x="357" y="289" width="17" height="17" rx="4" ry="4" fill="#1a7a82"/>
  <rect x="374" y="289" width="17" height="17" rx="4" ry="4" fill="#1a7a82"/>
  <rect x="442" y="289" width="17" height="17" rx="4" ry="4" fill="#1a7a82"/>
  <rect x="34" y="306" width="17" height="17" rx="4" ry="4" fill="#1a7a82"/>
  <rect x="68" y="306" width="17" height="17" rx="4" ry="4" fill="#1a7a82"/>
  <rect x="85" y="306" width="17" height="17" rx="4" ry="4" fill="#1a7a82"/>
  <rect x="102" y="306" width="17" height="17" rx="4" ry="4" fill="#1a7a82"/>
  <rect x="136" y="306" width="17" height="17" rx="4" ry="4" fill="#1a7a82"/>
  <rect x="153" y="306" width="17" height="17" rx="4" ry="4" fill="#1a7a82"/>
  <rect x="170" y="306" width="17" height="17" rx="4" ry="4" fill="#1a7a82"/>
  <rect x="204" y="306" width="17" height="17" rx="4" ry="4" fill="#1a7a82"/>
  <rect x="255" y="306" width="17" height="17" rx="4" ry="4" fill="#1a7a82"/>
  <rect x="272" y="306" width="17" height="17" rx="4" ry="4" fill="#1a7a82"/>
  <rect x="289" y="306" width="17" height="17" rx="4" ry="4" fill="#1a7a82"/>
  <rect x="306" y="306" width="17" height="17" rx="4" ry="4" fill="#1a7a82"/>
  <rect x="323" y="306" width="17" height="17" rx="4" ry="4" fill="#1a7a82"/>
  <rect x="340" y="306" width="17" height="17" rx="4" ry="4" fill="#1a7a82"/>
  <rect x="357" y="306" width="17" height="17" rx="4" ry="4" fill="#1a7a82"/>
  <rect x="374" y="306" width="17" height="17" rx="4" ry="4" fill="#1a7a82"/>
  <rect x="408" y="306" width="17" height="17" rx="4" ry="4" fill="#1a7a82"/>
  <rect x="170" y="323" width="17" height="17" rx="4" ry="4" fill="#1a7a82"/>
  <rect x="187" y="323" width="17" height="17" rx="4" ry="4" fill="#1a7a82"/>
  <rect x="221" y="323" width="17" height="17" rx="4" ry="4" fill="#1a7a82"/>
  <rect x="306" y="323" width="17" height="17" rx="4" ry="4" fill="#1a7a82"/>
  <rect x="374" y="323" width="17" height="17" rx="4" ry="4" fill="#1a7a82"/>
  <rect x="391" y="323" width="17" height="17" rx="4" ry="4" fill="#1a7a82"/>
  <rect x="34" y="340" width="17" height="17" rx="4" ry="4" fill="#1a7a82"/>
  <rect x="51" y="340" width="17" height="17" rx="4" ry="4" fill="#1a7a82"/>
  <rect x="68" y="340" width="17" height="17" rx="4" ry="4" fill="#1a7a82"/>
  <rect x="85" y="340" width="17" height="17" rx="4" ry="4" fill="#1a7a82"/>
  <rect x="102" y="340" width="17" height="17" rx="4" ry="4" fill="#1a7a82"/>
  <rect x="119" y="340" width="17" height="17" rx="4" ry="4" fill="#1a7a82"/>
  <rect x="136" y="340" width="17" height="17" rx="4" ry="4" fill="#1a7a82"/>
  <rect x="204" y="340" width="17" height="17" rx="4" ry="4" fill="#1a7a82"/>
  <rect x="255" y="340" width="17" height="17" rx="4" ry="4" fill="#1a7a82"/>
  <rect x="272" y="340" width="17" height="17" rx="4" ry="4" fill="#1a7a82"/>
  <rect x="306" y="340" width="17" height="17" rx="4" ry="4" fill="#1a7a82"/>
  <rect x="340" y="340" width="17" height="17" rx="4" ry="4" fill="#1a7a82"/>
  <rect x="374" y="340" width="17" height="17" rx="4" ry="4" fill="#1a7a82"/>
  <rect x="408" y="340" width="17" height="17" rx="4" ry="4" fill="#1a7a82"/>
  <rect x="425" y="340" width="17" height="17" rx="4" ry="4" fill="#1a7a82"/>
  <rect x="442" y="340" width="17" height="17" rx="4" ry="4" fill="#1a7a82"/>
  <rect x="34" y="357" width="17" height="17" rx="4" ry="4" fill="#1a7a82"/>
  <rect x="136" y="357" width="17" height="17" rx="4" ry="4" fill="#1a7a82"/>
  <rect x="170" y="357" width="17" height="17" rx="4" ry="4" fill="#1a7a82"/>
  <rect x="187" y="357" width="17" height="17" rx="4" ry="4" fill="#1a7a82"/>
  <rect x="272" y="357" width="17" height="17" rx="4" ry="4" fill="#1a7a82"/>
  <rect x="306" y="357" width="17" height="17" rx="4" ry="4" fill="#1a7a82"/>
  <rect x="374" y="357" width="17" height="17" rx="4" ry="4" fill="#1a7a82"/>
  <rect x="391" y="357" width="17" height="17" rx="4" ry="4" fill="#1a7a82"/>
  <rect x="34" y="374" width="17" height="17" rx="4" ry="4" fill="#1a7a82"/>
  <rect x="68" y="374" width="17" height="17" rx="4" ry="4" fill="#1a7a82"/>
  <rect x="85" y="374" width="17" height="17" rx="4" ry="4" fill="#1a7a82"/>
  <rect x="102" y="374" width="17" height="17" rx="4" ry="4" fill="#1a7a82"/>
  <rect x="136" y="374" width="17" height="17" rx="4" ry="4" fill="#1a7a82"/>
  <rect x="170" y="374" width="17" height="17" rx="4" ry="4" fill="#1a7a82"/>
  <rect x="204" y="374" width="17" height="17" rx="4" ry="4" fill="#1a7a82"/>
  <rect x="238" y="374" width="17" height="17" rx="4" ry="4" fill="#1a7a82"/>
  <rect x="255" y="374" width="17" height="17" rx="4" ry="4" fill="#1a7a82"/>
  <rect x="272" y="374" width="17" height="17" rx="4" ry="4" fill="#1a7a82"/>
  <rect x="289" y="374" width="17" height="17" rx="4" ry="4" fill="#1a7a82"/>
  <rect x="306" y="374" width="17" height="17" rx="4" ry="4" fill="#1a7a82"/>
  <rect x="323" y="374" width="17" height="17" rx="4" ry="4" fill="#1a7a82"/>
  <rect x="340" y="374" width="17" height="17" rx="4" ry="4" fill="#1a7a82"/>
  <rect x="357" y="374" width="17" height="17" rx="4" ry="4" fill="#1a7a82"/>
  <rect x="374" y="374" width="17" height="17" rx="4" ry="4" fill="#1a7a82"/>
  <rect x="408" y="374" width="17" height="17" rx="4" ry="4" fill="#1a7a82"/>
  <rect x="34" y="391" width="17" height="17" rx="4" ry="4" fill="#1a7a82"/>
  <rect x="68" y="391" width="17" height="17" rx="4" ry="4" fill="#1a7a82"/>
  <rect x="85" y="391" width="17" height="17" rx="4" ry="4" fill="#1a7a82"/>
  <rect x="102" y="391" width="17" height="17" rx="4" ry="4" fill="#1a7a82"/>
  <rect x="136" y="391" width="17" height="17" rx="4" ry="4" fill="#1a7a82"/>
  <rect x="170" y="391" width="17" height="17" rx="4" ry="4" fill="#1a7a82"/>
  <rect x="187" y="391" width="17" height="17" rx="4" ry="4" fill="#1a7a82"/>
  <rect x="204" y="391" width="17" height="17" rx="4" ry="4" fill="#1a7a82"/>
  <rect x="221" y="391" width="17" height="17" rx="4" ry="4" fill="#1a7a82"/>
  <rect x="289" y="391" width="17" height="17" rx="4" ry="4" fill="#1a7a82"/>
  <rect x="323" y="391" width="17" height="17" rx="4" ry="4" fill="#1a7a82"/>
  <rect x="340" y="391" width="17" height="17" rx="4" ry="4" fill="#1a7a82"/>
  <rect x="374" y="391" width="17" height="17" rx="4" ry="4" fill="#1a7a82"/>
  <rect x="391" y="391" width="17" height="17" rx="4" ry="4" fill="#1a7a82"/>
  <rect x="408" y="391" width="17" height="17" rx="4" ry="4" fill="#1a7a82"/>
  <rect x="425" y="391" width="17" height="17" rx="4" ry="4" fill="#1a7a82"/>
  <rect x="442" y="391" width="17" height="17" rx="4" ry="4" fill="#1a7a82"/>
  <rect x="34" y="408" width="17" height="17" rx="4" ry="4" fill="#1a7a82"/>
  <rect x="68" y="408" width="17" height="17" rx="4" ry="4" fill="#1a7a82"/>
  <rect x="85" y="408" width="17" height="17" rx="4" ry="4" fill="#1a7a82"/>
  <rect x="102" y="408" width="17" height="17" rx="4" ry="4" fill="#1a7a82"/>
  <rect x="136" y="408" width="17" height="17" rx="4" ry="4" fill="#1a7a82"/>
  <rect x="170" y="408" width="17" height="17" rx="4" ry="4" fill="#1a7a82"/>
  <rect x="323" y="408" width="17" height="17" rx="4" ry="4" fill="#1a7a82"/>
  <rect x="391" y="408" width="17" height="17" rx="4" ry="4" fill="#1a7a82"/>
  <rect x="408" y="408" width="17" height="17" rx="4" ry="4" fill="#1a7a82"/>
  <rect x="442" y="408" width="17" height="17" rx="4" ry="4" fill="#1a7a82"/>
  <rect x="34" y="425" width="17" height="17" rx="4" ry="4" fill="#1a7a82"/>
  <rect x="136" y="425" width="17" height="17" rx="4" ry="4" fill="#1a7a82"/>
  <rect x="272" y="425" width="17" height="17" rx="4" ry="4" fill="#1a7a82"/>
  <rect x="289" y="425" width="17" height="17" rx="4" ry="4" fill="#1a7a82"/>
  <rect x="306" y="425" width="17" height="17" rx="4" ry="4" fill="#1a7a82"/>
  <rect x="340" y="425" width="17" height="17" rx="4" ry="4" fill="#1a7a82"/>
  <rect x="357" y="425" width="17" height="17" rx="4" ry="4" fill="#1a7a82"/>
  <rect x="374" y="425" width="17" height="17" rx="4" ry="4" fill="#1a7a82"/>
  <rect x="391" y="425" width="17" height="17" rx="4" ry="4" fill="#1a7a82"/>
  <rect x="442" y="425" width="17" height="17" rx="4" ry="4" fill="#1a7a82"/>
  <rect x="34" y="442" width="17" height="17" rx="4" ry="4" fill="#1a7a82"/>
  <rect x="51" y="442" width="17" height="17" rx="4" ry="4" fill="#1a7a82"/>
  <rect x="68" y="442" width="17" height="17" rx="4" ry="4" fill="#1a7a82"/>
  <rect x="85" y="442" width="17" height="17" rx="4" ry="4" fill="#1a7a82"/>
  <rect x="102" y="442" width="17" height="17" rx="4" ry="4" fill="#1a7a82"/>
  <rect x="119" y="442" width="17" height="17" rx="4" ry="4" fill="#1a7a82"/>
  <rect x="136" y="442" width="17" height="17" rx="4" ry="4" fill="#1a7a82"/>
  <rect x="170" y="442" width="17" height="17" rx="4" ry="4" fill="#1a7a82"/>
  <rect x="187" y="442" width="17" height="17" rx="4" ry="4" fill="#1a7a82"/>
  <rect x="204" y="442" width="17" height="17" rx="4" ry="4" fill="#1a7a82"/>
  <rect x="221" y="442" width="17" height="17" rx="4" ry="4" fill="#1a7a82"/>
  <rect x="238" y="442" width="17" height="17" rx="4" ry="4" fill="#1a7a82"/>
  <rect x="255" y="442" width="17" height="17" rx="4" ry="4" fill="#1a7a82"/>
  <rect x="272" y="442" width="17" height="17" rx="4" ry="4" fill="#1a7a82"/>
  <rect x="357" y="442" width="17" height="17" rx="4" ry="4" fill="#1a7a82"/>
  <rect x="374" y="442" width="17" height="17" rx="4" ry="4" fill="#1a7a82"/>
  <rect x="391" y="442" width="17" height="17" rx="4" ry="4" fill="#1a7a82"/>
  <rect x="408" y="442" width="17" height="17" rx="4" ry="4" fill="#1a7a82"/>
  <rect x="425" y="442" width="17" height="17" rx="4" ry="4" fill="#1a7a82"/>
  <rect x="442" y="442" width="17" height="17" rx="4" ry="4" fill="#1a7a82"/>
</svg>